# xmcd
#
# Track frame offsets: 
#        151
#        17911
#        33346
#        54134
#        72799
#        91777
#        109565
#        126889
#        143026
#        159725
#        178311
#        197052
#
# Disc length: 2871 seconds
#
# Revision: 0
# Processed by: cddbd v1.5.2PL0 Copyright (c) Steve Scherf et al.
# Submitted via: ExactAudioCopy v1.0b3
#
DISCID=9c0b350c
DTITLE=群星 - 聆极物语IV
DYEAR=2006
DGENRE=stereo
TTITLE0=来来回回
TTITLE1=城市足印
TTITLE2=爱与痛的边缘
TTITLE3=说你永远都不离开我
TTITLE4=不让我的眼泪陪我过夜
TTITLE5=明日世界终结时
TTITLE6=情书
TTITLE7=有一点动心
TTITLE8=客至
TTITLE9=每一个明天
TTITLE10=孤枕难眠
TTITLE11=朋友
EXTD=
EXTT0=
EXTT1=
EXTT2=
EXTT3=
EXTT4=
EXTT5=
EXTT6=
EXTT7=
EXTT8=
EXTT9=
EXTT10=
EXTT11=
PLAYORDER=
